<svg width="979" height="340" viewBox="0 0 979 340" fill="none" xmlns="http://www.w3.org/2000/svg">
<mask id="mask0_1502_77" style="mask-type:luminance" maskUnits="userSpaceOnUse" x="0" y="0" width="335" height="334">
<path d="M334.7 0.256348H0.887207V333.989H334.7V0.256348Z" fill="white"/>
</mask>
<g mask="url(#mask0_1502_77)">
<path fill-rule="evenodd" clip-rule="evenodd" d="M233.881 13.958H257.683C263.191 13.958 265.577 18.5533 263.003 24.1733L152.777 264.716C148.012 274.805 142.224 274.007 138.652 268.607L127.065 246.362C123.765 237.198 124.758 229.707 128.625 221.29L219.175 24.1733C221.758 18.5533 228.373 13.958 233.881 13.958Z" fill="#003DF5"/>
<path fill-rule="evenodd" clip-rule="evenodd" d="M76.9098 13.958H101.633C107.141 13.958 113.953 18.5649 116.799 24.1733L159.826 108.938C163.088 114.469 163.024 118.61 160.279 126.441C156.439 134.692 153.034 142.477 149.092 151.201C145.645 156.983 139.732 156.251 135.545 149.271L72.0504 24.1733C69.2036 18.561 71.401 13.958 76.9058 13.958H76.9098Z" fill="#003DF5"/>
<path fill-rule="evenodd" clip-rule="evenodd" d="M19.5168 13.9609H44.2394C49.7482 13.9609 56.5633 18.564 59.4061 24.1762L132.343 168.156C135.3 173.264 136.097 178.922 133.163 185.528L123.041 206.96C117.083 213.998 110.623 212.603 107.976 207.607L14.6575 24.1762C11.8069 18.5678 14.0081 13.9609 19.513 13.9609H19.5168Z" fill="#003DF5"/>
<path fill-rule="evenodd" clip-rule="evenodd" d="M290.727 13.958H314.528C320.037 13.958 322.423 18.5571 319.848 24.1732L185.278 317.807C179.863 326.813 171.78 322.791 169.586 318.639L159.411 299.399C157.587 292.97 156.281 285.567 160.219 276.969L276.025 24.1694C278.6 18.5456 285.222 13.9541 290.731 13.9541L290.727 13.958Z" fill="#003DF5"/>
</g>
<path d="M899.173 226.431C892 226.431 885.325 225.634 879.149 224.04L868.09 235.098C871.478 236.891 876.06 238.386 881.838 239.581C887.617 240.777 896.981 241.972 909.932 243.168C929.658 244.961 944.003 249.643 952.969 257.214C961.935 264.786 966.418 275.246 966.418 288.596C966.418 297.363 964.027 305.631 959.246 313.402C954.464 321.372 947.092 327.748 937.129 332.529C927.167 337.511 914.415 340.001 898.874 340.001C877.754 340.001 860.718 336.016 847.767 328.046C834.816 320.276 828.341 308.52 828.341 292.78C828.341 279.43 834.816 267.874 847.767 258.111C843.782 256.318 840.296 254.425 837.307 252.432C834.517 250.44 832.027 248.348 829.835 246.156V239.282L855.837 211.786C844.281 201.625 838.502 188.574 838.502 172.634C838.502 162.672 840.893 153.606 845.675 145.437C850.656 137.268 857.63 130.793 866.596 126.011C875.562 121.229 886.421 118.838 899.173 118.838C907.541 118.838 915.312 120.033 922.485 122.424H978.672V145.736L953.268 147.529C957.253 155.101 959.246 163.469 959.246 172.634C959.246 182.597 956.855 191.662 952.073 199.831C947.291 208.001 940.317 214.476 931.152 219.258C922.186 224.04 911.526 226.431 899.173 226.431ZM899.173 197.142C906.943 197.142 913.319 195.05 918.3 190.865C923.481 186.681 926.071 180.704 926.071 172.933C926.071 165.163 923.481 159.185 918.3 155.001C913.319 150.817 906.943 148.725 899.173 148.725C891.004 148.725 884.429 150.817 879.447 155.001C874.466 159.185 871.976 165.163 871.976 172.933C871.976 180.704 874.466 186.681 879.447 190.865C884.429 195.05 891.004 197.142 899.173 197.142ZM863.309 288.895C863.309 296.267 866.696 301.746 873.47 305.332C880.444 309.118 888.912 311.011 898.874 311.011C908.438 311.011 916.208 309.018 922.186 305.033C928.163 301.248 931.152 296.067 931.152 289.492C931.152 284.113 929.159 279.63 925.174 276.043C921.389 272.457 913.718 270.265 902.162 269.468C893.992 268.87 886.421 267.974 879.447 266.778C873.669 269.966 869.485 273.453 866.895 277.239C864.504 281.024 863.309 284.91 863.309 288.895Z" fill="black"/>
<path d="M654.577 270.664V122.424H688.349L691.338 147.529C695.921 138.763 702.496 131.789 711.063 126.608C719.83 121.428 730.091 118.838 741.847 118.838C760.178 118.838 774.424 124.616 784.585 136.172C794.747 147.729 799.828 164.665 799.828 186.98V270.664H761.572V190.567C761.572 177.815 758.982 168.052 753.802 161.277C748.621 154.503 740.552 151.116 729.593 151.116C718.834 151.116 709.968 154.901 702.994 162.473C696.22 170.044 692.832 180.604 692.832 194.153V270.664H654.577Z" fill="black"/>
<path d="M595.521 99.4084C588.547 99.4084 582.769 97.3163 578.186 93.1321C573.803 88.948 571.611 83.668 571.611 77.2921C571.611 70.9162 573.803 65.7358 578.186 61.7509C582.769 57.5667 588.547 55.4746 595.521 55.4746C602.494 55.4746 608.173 57.5667 612.556 61.7509C617.139 65.7358 619.43 70.9162 619.43 77.2921C619.43 83.668 617.139 88.948 612.556 93.1321C608.173 97.3163 602.494 99.4084 595.521 99.4084ZM576.393 270.661V122.421H614.649V270.661H576.393Z" fill="black"/>
<path d="M497.554 270.661V55.4746H535.809V270.661H497.554Z" fill="black"/>
<path d="M420.209 270.661V55.4746H458.465V270.661H420.209Z" fill="black"/>
<path d="M361.153 99.4084C354.18 99.4084 348.401 97.3163 343.819 93.1321C339.435 88.948 337.244 83.668 337.244 77.2921C337.244 70.9162 339.435 65.7358 343.819 61.7509C348.401 57.5667 354.18 55.4746 361.153 55.4746C368.127 55.4746 373.805 57.5667 378.189 61.7509C382.771 65.7358 385.063 70.9162 385.063 77.2921C385.063 83.668 382.771 88.948 378.189 93.1321C373.805 97.3163 368.127 99.4084 361.153 99.4084ZM342.026 270.661V122.421H380.281V270.661H342.026Z" fill="black"/>
</svg>
