<svg width="101" height="99" viewBox="0 0 101 99" fill="none" xmlns="http://www.w3.org/2000/svg">
<g clip-path="url(#clip0_304_2)">
<path fill-rule="evenodd" clip-rule="evenodd" d="M70.3618 4.05569H77.5496C79.2131 4.05569 79.9337 5.41595 79.1561 7.0795L45.8692 78.2825C44.4303 81.2687 42.6823 81.0327 41.6037 79.4341L38.1045 72.8495C37.1079 70.1369 37.4078 67.9193 38.5754 65.4279L65.9207 7.0795C66.7006 5.41595 68.6982 4.05569 70.3618 4.05569Z" fill="#003DF5"/>
<path fill-rule="evenodd" clip-rule="evenodd" d="M22.9581 4.05569H30.4241C32.0876 4.05569 34.1446 5.41937 35.0043 7.0795L47.9979 32.1707C48.9831 33.808 48.9637 35.0337 48.1348 37.3517C46.9752 39.794 45.9467 42.0984 44.7564 44.6809C43.7154 46.3923 41.9298 46.1757 40.6653 44.1097L21.4906 7.0795C20.6309 5.41823 21.2945 4.05569 22.9569 4.05569H22.9581Z" fill="#003DF5"/>
<path fill-rule="evenodd" clip-rule="evenodd" d="M5.62594 4.05569H13.0919C14.7555 4.05569 16.8136 5.41823 17.6721 7.0795L39.6984 49.6989C40.5912 51.2108 40.8318 52.8858 39.9459 54.8412L36.889 61.1852C35.0898 63.2684 33.1389 62.8556 32.3396 61.3768L4.15851 7.0795C3.29766 5.41937 3.96239 4.05569 5.6248 4.05569H5.62594Z" fill="#003DF5"/>
<path fill-rule="evenodd" clip-rule="evenodd" d="M87.5285 4.05567H94.7163C96.3799 4.05567 97.1005 5.41707 96.3229 7.07948L55.684 93.9978C54.0489 96.6636 51.6078 95.4732 50.9453 94.2441L47.8725 88.5488C47.3218 86.6458 46.9273 84.4544 48.1165 81.9094L83.0886 7.07834C83.8662 5.41365 85.8661 4.05453 87.5297 4.05453L87.5285 4.05567Z" fill="#003DF5"/>
</g>
<defs>
<clipPath id="clip0_304_2">
<rect width="100.808" height="98.7878" fill="white"/>
</clipPath>
</defs>
</svg>
